<svg width="119" height="36" viewBox="0 0 119 36" fill="none" xmlns="http://www.w3.org/2000/svg">
<rect width="119" height="36" rx="4" fill="#66C2FF"/>
<path d="M12 18H18M18 18H24M18 18V12M18 18V24" stroke="#EEF2F5" stroke-width="2.57143" stroke-linecap="round" stroke-linejoin="round"/>
<path d="M38.192 23.128C37.8827 23.128 37.6427 23.0427 37.472 22.872C37.312 22.7013 37.232 22.456 37.232 22.136V12.616C37.232 12.2853 37.312 12.0347 37.472 11.864C37.6427 11.6827 37.8613 11.592 38.128 11.592C38.3733 11.592 38.5547 11.64 38.672 11.736C38.8 11.8213 38.9493 11.9707 39.12 12.184L45.248 20.136H44.832V12.568C44.832 12.2587 44.912 12.0187 45.072 11.848C45.2427 11.6773 45.4827 11.592 45.792 11.592C46.1013 11.592 46.336 11.6773 46.496 11.848C46.656 12.0187 46.736 12.2587 46.736 12.568V22.168C46.736 22.4667 46.6613 22.7013 46.512 22.872C46.3627 23.0427 46.16 23.128 45.904 23.128C45.6587 23.128 45.4613 23.08 45.312 22.984C45.1733 22.888 45.0187 22.7333 44.848 22.52L38.736 14.568H39.136V22.136C39.136 22.456 39.056 22.7013 38.896 22.872C38.736 23.0427 38.5013 23.128 38.192 23.128ZM52.8648 23.16C51.9794 23.16 51.2168 22.9947 50.5768 22.664C49.9368 22.3333 49.4408 21.864 49.0888 21.256C48.7474 20.648 48.5768 19.928 48.5768 19.096C48.5768 18.2853 48.7421 17.576 49.0728 16.968C49.4141 16.36 49.8781 15.8853 50.4648 15.544C51.0621 15.192 51.7394 15.016 52.4968 15.016C53.0514 15.016 53.5474 15.1067 53.9848 15.288C54.4328 15.4693 54.8114 15.7307 55.1208 16.072C55.4408 16.4133 55.6808 16.8293 55.8408 17.32C56.0114 17.8 56.0968 18.344 56.0968 18.952C56.0968 19.144 56.0274 19.2933 55.8888 19.4C55.7608 19.496 55.5741 19.544 55.3288 19.544H50.1928V18.392H54.6888L54.4328 18.632C54.4328 18.1413 54.3581 17.7307 54.2088 17.4C54.0701 17.0693 53.8621 16.8187 53.5848 16.648C53.3181 16.4667 52.9821 16.376 52.5768 16.376C52.1288 16.376 51.7448 16.4827 51.4248 16.696C51.1154 16.8987 50.8754 17.192 50.7048 17.576C50.5448 17.9493 50.4648 18.3973 50.4648 18.92V19.032C50.4648 19.9067 50.6674 20.5627 51.0728 21C51.4888 21.4267 52.0968 21.64 52.8968 21.64C53.1741 21.64 53.4834 21.608 53.8248 21.544C54.1768 21.4693 54.5074 21.3467 54.8168 21.176C55.0408 21.048 55.2381 20.9947 55.4088 21.016C55.5794 21.0267 55.7128 21.0853 55.8088 21.192C55.9154 21.2987 55.9794 21.432 56.0008 21.592C56.0221 21.7413 55.9901 21.896 55.9048 22.056C55.8301 22.216 55.6968 22.3547 55.5048 22.472C55.1314 22.7067 54.6994 22.8827 54.2088 23C53.7288 23.1067 53.2808 23.16 52.8648 23.16ZM60.5796 23.128C60.313 23.128 60.0836 23.064 59.8916 22.936C59.6996 22.7973 59.545 22.584 59.4276 22.296L57.1076 16.376C57.0116 16.12 56.9796 15.896 57.0116 15.704C57.0543 15.5013 57.1556 15.3413 57.3156 15.224C57.4756 15.1067 57.689 15.048 57.9556 15.048C58.1903 15.048 58.3823 15.1067 58.5316 15.224C58.681 15.3307 58.809 15.5387 58.9156 15.848L60.8516 21.176H60.4836L62.4836 15.72C62.569 15.4853 62.681 15.3147 62.8196 15.208C62.969 15.1013 63.161 15.048 63.3956 15.048C63.6303 15.048 63.8223 15.1067 63.9716 15.224C64.121 15.3307 64.233 15.496 64.3076 15.72L66.2756 21.176H65.9396L67.8916 15.8C67.9983 15.512 68.1316 15.3147 68.2916 15.208C68.4623 15.1013 68.649 15.048 68.8516 15.048C69.1076 15.048 69.305 15.112 69.4436 15.24C69.5823 15.368 69.6623 15.5333 69.6836 15.736C69.705 15.928 69.6676 16.1413 69.5716 16.376L67.2676 22.296C67.161 22.5733 67.0063 22.7813 66.8036 22.92C66.6116 23.0587 66.3823 23.128 66.1156 23.128C65.849 23.128 65.6143 23.0587 65.4116 22.92C65.2196 22.7813 65.0703 22.5733 64.9636 22.296L62.8676 16.744H63.7796L61.7316 22.28C61.625 22.568 61.4756 22.7813 61.2836 22.92C61.0916 23.0587 60.857 23.128 60.5796 23.128ZM79.156 23.16C78.3347 23.16 77.62 22.9947 77.012 22.664C76.404 22.3227 75.9347 21.8427 75.604 21.224C75.2733 20.6053 75.108 19.88 75.108 19.048C75.108 18.4187 75.1987 17.8587 75.38 17.368C75.572 16.8667 75.844 16.4453 76.196 16.104C76.548 15.752 76.9747 15.4853 77.476 15.304C77.9773 15.112 78.5373 15.016 79.156 15.016C79.508 15.016 79.8867 15.064 80.292 15.16C80.708 15.256 81.0973 15.416 81.46 15.64C81.6307 15.7467 81.7427 15.8747 81.796 16.024C81.8493 16.1733 81.86 16.328 81.828 16.488C81.796 16.6373 81.7267 16.7707 81.62 16.888C81.524 16.9947 81.4013 17.064 81.252 17.096C81.1027 17.1173 80.9373 17.08 80.756 16.984C80.5213 16.8453 80.2813 16.744 80.036 16.68C79.7907 16.6053 79.556 16.568 79.332 16.568C78.98 16.568 78.6707 16.6267 78.404 16.744C78.1373 16.8507 77.908 17.0107 77.716 17.224C77.5347 17.4267 77.396 17.6827 77.3 17.992C77.204 18.3013 77.156 18.6587 77.156 19.064C77.156 19.8533 77.3427 20.4773 77.716 20.936C78.1 21.384 78.6387 21.608 79.332 21.608C79.556 21.608 79.7853 21.576 80.02 21.512C80.2653 21.448 80.5107 21.3467 80.756 21.208C80.9373 21.112 81.0973 21.08 81.236 21.112C81.3853 21.144 81.508 21.2187 81.604 21.336C81.7 21.4427 81.7587 21.576 81.78 21.736C81.8013 21.8853 81.78 22.0347 81.716 22.184C81.6627 22.3333 81.556 22.456 81.396 22.552C81.044 22.7653 80.6707 22.92 80.276 23.016C79.8813 23.112 79.508 23.16 79.156 23.16ZM84.0789 23.128C83.7589 23.128 83.5135 23.0427 83.3429 22.872C83.1722 22.6907 83.0869 22.4347 83.0869 22.104V12.6C83.0869 12.2693 83.1722 12.0187 83.3429 11.848C83.5135 11.6773 83.7589 11.592 84.0789 11.592C84.3989 11.592 84.6442 11.6773 84.8149 11.848C84.9962 12.0187 85.0869 12.2693 85.0869 12.6V16.744H84.8629C85.0975 16.1787 85.4602 15.752 85.9509 15.464C86.4522 15.1653 87.0175 15.016 87.6469 15.016C88.2762 15.016 88.7935 15.1333 89.1989 15.368C89.6042 15.6027 89.9082 15.96 90.1109 16.44C90.3135 16.9093 90.4149 17.5067 90.4149 18.232V22.104C90.4149 22.4347 90.3295 22.6907 90.1589 22.872C89.9882 23.0427 89.7429 23.128 89.4229 23.128C89.1029 23.128 88.8522 23.0427 88.6709 22.872C88.5002 22.6907 88.4149 22.4347 88.4149 22.104V18.328C88.4149 17.72 88.2975 17.2773 88.0629 17C87.8389 16.7227 87.4869 16.584 87.0069 16.584C86.4202 16.584 85.9509 16.7707 85.5989 17.144C85.2575 17.5067 85.0869 17.992 85.0869 18.6V22.104C85.0869 22.7867 84.7509 23.128 84.0789 23.128ZM95.0223 23.16C94.4569 23.16 93.9503 23.0533 93.5023 22.84C93.0649 22.616 92.7183 22.3173 92.4622 21.944C92.2169 21.5707 92.0943 21.1493 92.0943 20.68C92.0943 20.104 92.2436 19.6507 92.5423 19.32C92.8409 18.9787 93.3263 18.7333 93.9983 18.584C94.6703 18.4347 95.5716 18.36 96.7023 18.36H97.5023V19.512H96.7183C96.0569 19.512 95.5289 19.544 95.1343 19.608C94.7396 19.672 94.4569 19.784 94.2863 19.944C94.1263 20.0933 94.0463 20.3067 94.0463 20.584C94.0463 20.936 94.1689 21.224 94.4143 21.448C94.6596 21.672 95.0009 21.784 95.4383 21.784C95.7903 21.784 96.0996 21.704 96.3663 21.544C96.6436 21.3733 96.8623 21.144 97.0223 20.856C97.1823 20.568 97.2623 20.2373 97.2623 19.864V18.024C97.2623 17.4907 97.1449 17.1067 96.9103 16.872C96.6756 16.6373 96.2809 16.52 95.7263 16.52C95.4169 16.52 95.0809 16.5573 94.7183 16.632C94.3663 16.7067 93.9929 16.8347 93.5983 17.016C93.3956 17.112 93.2143 17.1387 93.0543 17.096C92.9049 17.0533 92.7876 16.968 92.7023 16.84C92.6169 16.7013 92.5743 16.552 92.5743 16.392C92.5743 16.232 92.6169 16.0773 92.7023 15.928C92.7876 15.768 92.9316 15.6507 93.1343 15.576C93.6249 15.3733 94.0943 15.2293 94.5423 15.144C95.0009 15.0587 95.4169 15.016 95.7903 15.016C96.5583 15.016 97.1876 15.1333 97.6783 15.368C98.1796 15.6027 98.5529 15.96 98.7983 16.44C99.0436 16.9093 99.1663 17.5173 99.1663 18.264V22.104C99.1663 22.4347 99.0863 22.6907 98.9263 22.872C98.7663 23.0427 98.5369 23.128 98.2383 23.128C97.9396 23.128 97.7049 23.0427 97.5343 22.872C97.3743 22.6907 97.2943 22.4347 97.2943 22.104V21.336H97.4223C97.3476 21.7093 97.1983 22.0347 96.9743 22.312C96.7609 22.5787 96.4889 22.7867 96.1583 22.936C95.8276 23.0853 95.4489 23.16 95.0223 23.16ZM104.78 23.16C104.087 23.16 103.506 23.0427 103.036 22.808C102.578 22.5733 102.236 22.232 102.012 21.784C101.788 21.3253 101.676 20.76 101.676 20.088V16.68H100.844C100.588 16.68 100.391 16.616 100.252 16.488C100.114 16.3493 100.044 16.1627 100.044 15.928C100.044 15.6827 100.114 15.496 100.252 15.368C100.391 15.24 100.588 15.176 100.844 15.176H101.676V13.72C101.676 13.3893 101.762 13.1387 101.932 12.968C102.114 12.7973 102.364 12.712 102.684 12.712C103.004 12.712 103.25 12.7973 103.42 12.968C103.591 13.1387 103.676 13.3893 103.676 13.72V15.176H105.372C105.628 15.176 105.826 15.24 105.964 15.368C106.103 15.496 106.172 15.6827 106.172 15.928C106.172 16.1627 106.103 16.3493 105.964 16.488C105.826 16.616 105.628 16.68 105.372 16.68H103.676V19.976C103.676 20.488 103.788 20.872 104.012 21.128C104.236 21.384 104.599 21.512 105.1 21.512C105.282 21.512 105.442 21.496 105.58 21.464C105.719 21.432 105.842 21.4107 105.948 21.4C106.076 21.3893 106.183 21.432 106.268 21.528C106.354 21.6133 106.396 21.7947 106.396 22.072C106.396 22.2853 106.359 22.4773 106.284 22.648C106.22 22.808 106.098 22.92 105.916 22.984C105.778 23.0267 105.596 23.064 105.372 23.096C105.148 23.1387 104.951 23.16 104.78 23.16Z" fill="#F5F5F5"/>
</svg>
