<svg width="30" height="30" viewBox="0 0 30 30" fill="none" xmlns="http://www.w3.org/2000/svg">
<path d="M4.97501 10.2787C3.80558 11.659 2.93478 13.2665 2.41751 15C4.03251 20.4225 9.05501 24.375 15 24.375C16.2413 24.375 17.4413 24.2025 18.5788 23.8812M7.78501 7.785C9.92582 6.37233 12.4351 5.6211 15 5.625C20.945 5.625 25.9663 9.5775 27.5813 14.9975C26.6962 17.9592 24.7963 20.5145 22.215 22.215M7.78501 7.785L3.75001 3.75M7.78501 7.785L12.3475 12.3475M22.215 22.215L26.25 26.25M22.215 22.215L17.6525 17.6525C18.0008 17.3043 18.277 16.8908 18.4655 16.4358C18.6539 15.9808 18.751 15.4931 18.751 15.0006C18.751 14.5081 18.6539 14.0204 18.4655 13.5654C18.277 13.1104 18.0008 12.697 17.6525 12.3487C17.3043 12.0005 16.8908 11.7243 16.4358 11.5358C15.9808 11.3473 15.4931 11.2503 15.0006 11.2503C14.5081 11.2503 14.0205 11.3473 13.5655 11.5358C13.1104 11.7243 12.697 12.0005 12.3488 12.3487M17.6513 17.6513L12.35 12.35" stroke="#66C2FF" stroke-width="2" stroke-linecap="round" stroke-linejoin="round"/>
</svg>
