<svg width="30" height="30" viewBox="0 0 30 30" fill="none" xmlns="http://www.w3.org/2000/svg">
<path d="M2.54501 15.4025C2.45875 15.1432 2.45875 14.863 2.54501 14.6037C4.27876 9.3875 9.20001 5.625 15 5.625C20.7975 5.625 25.7163 9.38375 27.4538 14.5975C27.5413 14.8563 27.5413 15.1363 27.4538 15.3963C25.7213 20.6125 20.8 24.375 15 24.375C9.20251 24.375 4.28251 20.6162 2.54501 15.4025Z" stroke="#131313" stroke-width="1.5" stroke-linecap="round" stroke-linejoin="round"/>
<path d="M18.75 15C18.75 15.9946 18.3549 16.9484 17.6517 17.6517C16.9484 18.3549 15.9946 18.75 15 18.75C14.0054 18.75 13.0516 18.3549 12.3483 17.6517C11.6451 16.9484 11.25 15.9946 11.25 15C11.25 14.0054 11.6451 13.0516 12.3483 12.3483C13.0516 11.6451 14.0054 11.25 15 11.25C15.9946 11.25 16.9484 11.6451 17.6517 12.3483C18.3549 13.0516 18.75 14.0054 18.75 15Z" stroke="#66C2FF" stroke-width="2" stroke-linecap="round" stroke-linejoin="round"/>
</svg>
