<svg width="121" height="117" viewBox="0 0 121 117" fill="none" xmlns="http://www.w3.org/2000/svg">
<g filter="url(#filter0_d_19_76)">
<path d="M42.5 32C42.5 40.8366 35.3366 48 26.5 48C17.6634 48 10.5 40.8366 10.5 32C10.5 23.1634 13.6634 16 22.5 16C31.3366 16 42.5 23.1634 42.5 32Z" fill="#7DCBFF"/>
<path d="M106.5 32C106.5 40.8366 99.3366 48 90.5 48C81.6634 48 74.5 40.8366 74.5 32C74.5 23.1634 85.6634 16 94.5 16C103.337 16 106.5 23.1634 106.5 32Z" fill="#7DCBFF"/>
<path d="M10.5 32C10.5 40.8366 17.6634 48 26.5 48C35.3366 48 42.5 40.8366 42.5 32C42.5 23.1634 31.3366 16 22.5 16C13.6634 16 10.5 23.1634 10.5 32Z" fill="#7DCBFF"/>
<path d="M101.5 38.5C101.5 42.6421 98.1421 46 94 46C89.8579 46 86.5 42.6421 86.5 38.5C86.5 34.3579 91.7329 31 95.875 31C100.017 31 101.5 34.3579 101.5 38.5Z" fill="#6BC4FF"/>
<path d="M15.5 38.5C15.5 42.6421 18.8579 46 23 46C27.1421 46 30.5 42.6421 30.5 38.5C30.5 34.3579 25.2671 31 21.125 31C16.9829 31 15.5 34.3579 15.5 38.5Z" fill="#6BC4FF"/>
<path d="M98.5 66.1485C98.5 85.3965 80.5914 101 58.5 101C36.4086 101 18.5 85.3965 18.5 66.1485C18.5 46.9006 36.4086 13 58.5 13C80.5914 13 98.5 46.9006 98.5 66.1485Z" fill="url(#paint0_linear_19_76)"/>
<ellipse cx="58.5" cy="27.5" rx="16" ry="13.5" fill="url(#paint1_linear_19_76)"/>
<rect x="74.5" y="53" width="4" height="4" rx="2" fill="#63C1FF"/>
<rect x="38.5" y="52" width="4" height="4" rx="2" fill="#63C1FF"/>
<ellipse cx="38.5" cy="72.5" rx="10" ry="12.5" fill="#58BDFF"/>
<ellipse cx="78.5" cy="72.5" rx="10" ry="12.5" fill="#58BDFF"/>
<ellipse cx="38.5" cy="72" rx="10" ry="12" fill="#E8F5FF"/>
<ellipse cx="38.5" cy="72.5" rx="8" ry="9.5" fill="#DEF0FF"/>
<ellipse cx="39" cy="73" rx="4.5" ry="5" fill="#C6FAFF"/>
<ellipse cx="38" cy="70" rx="1.5" ry="1" transform="rotate(-30 38 70)" fill="#DEF0FF"/>
<circle cx="41.5" cy="75" r="1" fill="#E8F5FF"/>
<ellipse cx="78.5" cy="72" rx="10" ry="12" fill="#E8F5FF"/>
<ellipse cx="78.5" cy="72.5" rx="8" ry="9.5" fill="#DEF0FF"/>
<ellipse cx="79" cy="73" rx="4.5" ry="5" fill="#C6FAFF"/>
<ellipse cx="78" cy="70" rx="1.5" ry="1" transform="rotate(-30 78 70)" fill="#DEF0FF"/>
<circle cx="81.5" cy="75" r="1" fill="#E8F5FF"/>
<path d="M57.198 92.1772C57.8361 93.0706 59.1639 93.0706 59.802 92.1772L61.6929 89.53C62.4493 88.471 61.6923 87 60.3909 87H56.6091C55.3077 87 54.5507 88.471 55.3071 89.53L57.198 92.1772Z" fill="#58BDFF"/>
<path d="M57.2708 91.525C57.9105 92.2926 59.0895 92.2926 59.7292 91.525L61.3131 89.6243C62.1815 88.5822 61.4405 87 60.0839 87H56.9161C55.5595 87 54.8185 88.5822 55.6869 89.6243L57.2708 91.525Z" fill="#DEF0FF"/>
<path d="M57.7474 90.4256C58.1458 90.881 58.8542 90.881 59.2526 90.4256L60.0488 89.5157C60.6146 88.8691 60.1554 87.8571 59.2962 87.8571H57.7038C56.8446 87.8571 56.3854 88.8691 56.9512 89.5157L57.7474 90.4256Z" fill="#C6FAFF"/>
</g>
<defs>
<filter id="filter0_d_19_76" x="0.5" y="-8" width="120" height="125" filterUnits="userSpaceOnUse" color-interpolation-filters="sRGB">
<feFlood flood-opacity="0" result="BackgroundImageFix"/>
<feColorMatrix in="SourceAlpha" type="matrix" values="0 0 0 0 0 0 0 0 0 0 0 0 0 0 0 0 0 0 127 0" result="hardAlpha"/>
<feOffset dx="2" dy="4"/>
<feGaussianBlur stdDeviation="6"/>
<feComposite in2="hardAlpha" operator="out"/>
<feColorMatrix type="matrix" values="0 0 0 0 0.4 0 0 0 0 0.760784 0 0 0 0 1 0 0 0 0.24 0"/>
<feBlend mode="normal" in2="BackgroundImageFix" result="effect1_dropShadow_19_76"/>
<feBlend mode="normal" in="SourceGraphic" in2="effect1_dropShadow_19_76" result="shape"/>
</filter>
<linearGradient id="paint0_linear_19_76" x1="58.5" y1="13" x2="58.5" y2="101" gradientUnits="userSpaceOnUse">
<stop stop-color="#7DCBFF"/>
<stop offset="1" stop-color="#66C2FF"/>
</linearGradient>
<linearGradient id="paint1_linear_19_76" x1="58.5" y1="14" x2="58.5" y2="41" gradientUnits="userSpaceOnUse">
<stop stop-color="#7DCBFF"/>
<stop offset="1" stop-color="#7DCBFF"/>
</linearGradient>
</defs>
</svg>
