<svg width="79" height="55" viewBox="0 0 79 55" fill="none" xmlns="http://www.w3.org/2000/svg">
<path d="M5.72 41.32C4.89333 41.32 4.24 41.0933 3.76 40.64C3.30667 40.16 3.08 39.48 3.08 38.6V15.52C3.08 14.64 3.30667 13.9733 3.76 13.52C4.24 13.04 4.92 12.8 5.8 12.8H19.76C20.4533 12.8 20.9733 12.9733 21.32 13.32C21.6667 13.6667 21.84 14.16 21.84 14.8C21.84 15.4667 21.6667 15.9867 21.32 16.36C20.9733 16.7067 20.4533 16.88 19.76 16.88H8.2V24.84H18.92C19.5867 24.84 20.0933 25.0133 20.44 25.36C20.8133 25.7067 21 26.2 21 26.84C21 27.5067 20.8133 28.0267 20.44 28.4C20.0933 28.7467 19.5867 28.92 18.92 28.92H8.2V38.6C8.2 40.4133 7.37333 41.32 5.72 41.32Z" fill="white"/>
<path d="M26.58 41.28C25.78 41.28 25.1667 41.04 24.74 40.56C24.3133 40.08 24.1 39.4133 24.1 38.56V23.88C24.1 23 24.3133 22.3333 24.74 21.88C25.1667 21.4 25.78 21.16 26.58 21.16C27.38 21.16 27.9933 21.4 28.42 21.88C28.8733 22.3333 29.1 23 29.1 23.88V38.56C29.1 39.4133 28.8867 40.08 28.46 40.56C28.0333 41.04 27.4067 41.28 26.58 41.28ZM26.58 17.44C25.6467 17.44 24.9133 17.2133 24.38 16.76C23.8733 16.28 23.62 15.6267 23.62 14.8C23.62 13.9467 23.8733 13.2933 24.38 12.84C24.9133 12.3867 25.6467 12.16 26.58 12.16C27.54 12.16 28.2733 12.3867 28.78 12.84C29.2867 13.2933 29.54 13.9467 29.54 14.8C29.54 15.6267 29.2867 16.28 28.78 16.76C28.2733 17.2133 27.54 17.44 26.58 17.44Z" fill="white"/>
<path d="M38.5 24.75C38.5 26.9591 36.7091 28.75 34.5 28.75C32.2909 28.75 30.5 26.9591 30.5 24.75C30.5 22.5409 31.2909 20.75 33.5 20.75C35.7091 20.75 38.5 22.5409 38.5 24.75Z" fill="#7DCBFF"/>
<path d="M54.5 24.75C54.5 26.9591 52.7091 28.75 50.5 28.75C48.2909 28.75 46.5 26.9591 46.5 24.75C46.5 22.5409 49.2909 20.75 51.5 20.75C53.7091 20.75 54.5 22.5409 54.5 24.75Z" fill="#7DCBFF"/>
<path d="M30.5 24.75C30.5 26.9591 32.2909 28.75 34.5 28.75C36.7091 28.75 38.5 26.9591 38.5 24.75C38.5 22.5409 35.7091 20.75 33.5 20.75C31.2909 20.75 30.5 22.5409 30.5 24.75Z" fill="#7DCBFF"/>
<path d="M53.25 26.375C53.25 27.4105 52.4105 28.25 51.375 28.25C50.3395 28.25 49.5 27.4105 49.5 26.375C49.5 25.3395 50.8082 24.5 51.8437 24.5C52.8793 24.5 53.25 25.3395 53.25 26.375Z" fill="#6BC4FF"/>
<path d="M31.75 26.375C31.75 27.4105 32.5895 28.25 33.625 28.25C34.6605 28.25 35.5 27.4105 35.5 26.375C35.5 25.3395 34.1918 24.5 33.1563 24.5C32.1207 24.5 31.75 25.3395 31.75 26.375Z" fill="#6BC4FF"/>
<path d="M52.5 33.2871C52.5 38.0991 48.0228 42 42.5 42C36.9772 42 32.5 38.0991 32.5 33.2871C32.5 28.4751 36.9772 20 42.5 20C48.0228 20 52.5 28.4751 52.5 33.2871Z" fill="url(#paint0_linear_28_2754)"/>
<ellipse cx="42.5" cy="23.625" rx="4" ry="3.375" fill="url(#paint1_linear_28_2754)"/>
<rect x="46.5" y="30" width="1" height="1" rx="0.5" fill="#63C1FF"/>
<rect x="37.5" y="29.75" width="1" height="1" rx="0.5" fill="#63C1FF"/>
<ellipse cx="37.5" cy="34.875" rx="2.5" ry="3.125" fill="#58BDFF"/>
<ellipse cx="47.5" cy="34.875" rx="2.5" ry="3.125" fill="#58BDFF"/>
<ellipse cx="37.5" cy="34.75" rx="2.5" ry="3" fill="#E8F5FF"/>
<ellipse cx="37.5" cy="34.875" rx="2" ry="2.375" fill="#DEF0FF"/>
<ellipse cx="37.625" cy="35" rx="1.125" ry="1.25" fill="#C6FAFF"/>
<ellipse cx="37.3749" cy="34.25" rx="0.375" ry="0.25" transform="rotate(-30 37.3749 34.25)" fill="#DEF0FF"/>
<circle cx="38.25" cy="35.5" r="0.25" fill="#E8F5FF"/>
<ellipse cx="47.5" cy="34.75" rx="2.5" ry="3" fill="#E8F5FF"/>
<ellipse cx="47.5" cy="34.875" rx="2" ry="2.375" fill="#DEF0FF"/>
<ellipse cx="47.625" cy="35" rx="1.125" ry="1.25" fill="#C6FAFF"/>
<ellipse cx="47.3749" cy="34.25" rx="0.375" ry="0.25" transform="rotate(-30 47.3749 34.25)" fill="#DEF0FF"/>
<circle cx="48.25" cy="35.5" r="0.25" fill="#E8F5FF"/>
<path d="M42.1745 39.7943C42.334 40.0176 42.666 40.0176 42.8255 39.7943L43.2982 39.1325C43.4873 38.8677 43.2981 38.5 42.9727 38.5H42.0273C41.7019 38.5 41.5127 38.8677 41.7018 39.1325L42.1745 39.7943Z" fill="#58BDFF"/>
<path d="M42.1927 39.6313C42.3526 39.8232 42.6474 39.8232 42.8073 39.6313L43.2033 39.1561C43.4204 38.8955 43.2351 38.5 42.896 38.5H42.104C41.7649 38.5 41.5796 38.8955 41.7967 39.1561L42.1927 39.6313Z" fill="#DEF0FF"/>
<path d="M42.3119 39.3564C42.4115 39.4702 42.5885 39.4702 42.6881 39.3564L42.8872 39.1289C43.0286 38.9672 42.9138 38.7143 42.6991 38.7143H42.3009C42.0862 38.7143 41.9714 38.9672 42.1128 39.1289L42.3119 39.3564Z" fill="#C6FAFF"/>
<path d="M58.66 41.32C57.8333 41.32 57.1933 41.1067 56.74 40.68C56.3133 40.2267 56.1 39.5867 56.1 38.76V23.64C56.1 22.8133 56.3133 22.1867 56.74 21.76C57.1667 21.3333 57.7667 21.12 58.54 21.12C59.3133 21.12 59.9133 21.3333 60.34 21.76C60.7667 22.1867 60.98 22.8133 60.98 23.64V26.16H60.58C60.9533 24.56 61.6867 23.3467 62.78 22.52C63.8733 21.6933 65.3267 21.2 67.14 21.04C67.7 20.9867 68.14 21.1333 68.46 21.48C68.8067 21.8 69.0067 22.3067 69.06 23C69.1133 23.6667 68.9533 24.2133 68.58 24.64C68.2333 25.04 67.7 25.28 66.98 25.36L66.1 25.44C64.4733 25.6 63.2467 26.1067 62.42 26.96C61.5933 27.7867 61.18 28.96 61.18 30.48V38.76C61.18 39.5867 60.9667 40.2267 60.54 40.68C60.1133 41.1067 59.4867 41.32 58.66 41.32Z" fill="white"/>
<path d="M73.08 41.28C72.28 41.28 71.6667 41.04 71.24 40.56C70.8133 40.08 70.6 39.4133 70.6 38.56V23.88C70.6 23 70.8133 22.3333 71.24 21.88C71.6667 21.4 72.28 21.16 73.08 21.16C73.88 21.16 74.4933 21.4 74.92 21.88C75.3733 22.3333 75.6 23 75.6 23.88V38.56C75.6 39.4133 75.3867 40.08 74.96 40.56C74.5333 41.04 73.9067 41.28 73.08 41.28ZM73.08 17.44C72.1467 17.44 71.4133 17.2133 70.88 16.76C70.3733 16.28 70.12 15.6267 70.12 14.8C70.12 13.9467 70.3733 13.2933 70.88 12.84C71.4133 12.3867 72.1467 12.16 73.08 12.16C74.04 12.16 74.7733 12.3867 75.28 12.84C75.7867 13.2933 76.04 13.9467 76.04 14.8C76.04 15.6267 75.7867 16.28 75.28 16.76C74.7733 17.2133 74.04 17.44 73.08 17.44Z" fill="white"/>
<defs>
<linearGradient id="paint0_linear_28_2754" x1="42.5" y1="20" x2="42.5" y2="42" gradientUnits="userSpaceOnUse">
<stop stop-color="#7DCBFF"/>
<stop offset="1" stop-color="#66C2FF"/>
</linearGradient>
<linearGradient id="paint1_linear_28_2754" x1="42.5" y1="20.25" x2="42.5" y2="27" gradientUnits="userSpaceOnUse">
<stop stop-color="#7DCBFF"/>
<stop offset="1" stop-color="#7DCBFF"/>
</linearGradient>
</defs>
</svg>
