<svg width="119" height="36" viewBox="0 0 119 36" fill="none" xmlns="http://www.w3.org/2000/svg">
<rect width="119" height="36" rx="4" fill="#66C2FF"/>
<path d="M25.75 11.25H31.75C32.1478 11.25 32.5294 11.408 32.8107 11.6893C33.092 11.9706 33.25 12.3522 33.25 12.75V23.25C33.25 23.6478 33.092 24.0294 32.8107 24.3107C32.5294 24.592 32.1478 24.75 31.75 24.75H25.75M22.75 18L25.75 15M22.75 18L25.75 21M22.75 18H30.25" stroke="#EEF2F5" stroke-width="1.8" stroke-linecap="round" stroke-linejoin="round"/>
<path d="M51.12 23.16C50.6507 23.16 50.1813 23.1227 49.712 23.048C49.2427 22.984 48.8 22.8827 48.384 22.744C47.968 22.5947 47.5947 22.4133 47.264 22.2C47.072 22.072 46.9387 21.9173 46.864 21.736C46.7893 21.5547 46.7627 21.3787 46.784 21.208C46.816 21.0267 46.8853 20.872 46.992 20.744C47.1093 20.6053 47.2533 20.52 47.424 20.488C47.5947 20.456 47.7813 20.504 47.984 20.632C48.4533 20.9093 48.9493 21.112 49.472 21.24C49.9947 21.368 50.544 21.432 51.12 21.432C51.9627 21.432 52.576 21.2933 52.96 21.016C53.344 20.728 53.536 20.36 53.536 19.912C53.536 19.5387 53.3973 19.2453 53.12 19.032C52.8533 18.8187 52.3893 18.6427 51.728 18.504L49.968 18.136C48.9547 17.9227 48.1973 17.5653 47.696 17.064C47.2053 16.552 46.96 15.88 46.96 15.048C46.96 14.5253 47.0667 14.0507 47.28 13.624C47.4933 13.1973 47.792 12.8293 48.176 12.52C48.5707 12.2107 49.0347 11.976 49.568 11.816C50.112 11.6453 50.7093 11.56 51.36 11.56C52 11.56 52.608 11.64 53.184 11.8C53.76 11.96 54.2773 12.1947 54.736 12.504C54.9067 12.6213 55.0187 12.7653 55.072 12.936C55.136 13.1067 55.152 13.2773 55.12 13.448C55.088 13.608 55.0133 13.7467 54.896 13.864C54.7787 13.9813 54.6293 14.0507 54.448 14.072C54.2773 14.0933 54.08 14.04 53.856 13.912C53.4613 13.688 53.0613 13.528 52.656 13.432C52.2507 13.336 51.8133 13.288 51.344 13.288C50.8533 13.288 50.432 13.3573 50.08 13.496C49.728 13.6347 49.456 13.832 49.264 14.088C49.0827 14.3333 48.992 14.6267 48.992 14.968C48.992 15.352 49.12 15.6613 49.376 15.896C49.632 16.12 50.0693 16.296 50.688 16.424L52.432 16.792C53.488 17.016 54.272 17.368 54.784 17.848C55.3067 18.328 55.568 18.968 55.568 19.768C55.568 20.28 55.4613 20.744 55.248 21.16C55.0453 21.576 54.7467 21.9333 54.352 22.232C53.968 22.5307 53.504 22.76 52.96 22.92C52.416 23.08 51.8027 23.16 51.12 23.16ZM58.1258 23.112C57.8058 23.112 57.5604 23.016 57.3898 22.824C57.2191 22.632 57.1338 22.3653 57.1338 22.024V16.152C57.1338 15.8 57.2191 15.5333 57.3898 15.352C57.5604 15.16 57.8058 15.064 58.1258 15.064C58.4458 15.064 58.6911 15.16 58.8618 15.352C59.0431 15.5333 59.1338 15.8 59.1338 16.152V22.024C59.1338 22.3653 59.0484 22.632 58.8778 22.824C58.7071 23.016 58.4564 23.112 58.1258 23.112ZM58.1258 13.576C57.7524 13.576 57.4591 13.4853 57.2458 13.304C57.0431 13.112 56.9418 12.8507 56.9418 12.52C56.9418 12.1787 57.0431 11.9173 57.2458 11.736C57.4591 11.5547 57.7524 11.464 58.1258 11.464C58.5098 11.464 58.8031 11.5547 59.0058 11.736C59.2084 11.9173 59.3098 12.1787 59.3098 12.52C59.3098 12.8507 59.2084 13.112 59.0058 13.304C58.8031 13.4853 58.5098 13.576 58.1258 13.576ZM64.8599 26.04C64.2839 26.04 63.7239 25.9867 63.1799 25.88C62.6465 25.7733 62.1612 25.608 61.7239 25.384C61.5212 25.2773 61.3825 25.1493 61.3079 25C61.2439 24.8507 61.2225 24.696 61.2439 24.536C61.2759 24.3867 61.3399 24.2533 61.4359 24.136C61.5425 24.0187 61.6705 23.9387 61.8199 23.896C61.9692 23.8533 62.1239 23.8747 62.2839 23.96C62.7532 24.1947 63.1959 24.344 63.6119 24.408C64.0385 24.4827 64.4012 24.52 64.6999 24.52C65.4145 24.52 65.9479 24.344 66.2999 23.992C66.6625 23.6507 66.8439 23.1387 66.8439 22.456V21.016H66.9879C66.8279 21.56 66.4919 21.9973 65.9799 22.328C65.4785 22.648 64.9079 22.808 64.2679 22.808C63.5639 22.808 62.9505 22.648 62.4279 22.328C61.9052 21.9973 61.4999 21.5387 61.2119 20.952C60.9239 20.3653 60.7799 19.6827 60.7799 18.904C60.7799 18.3173 60.8599 17.7893 61.0199 17.32C61.1905 16.84 61.4252 16.4293 61.7239 16.088C62.0332 15.7467 62.4012 15.4853 62.8279 15.304C63.2652 15.112 63.7452 15.016 64.2679 15.016C64.9292 15.016 65.5052 15.1813 65.9959 15.512C66.4972 15.832 66.8225 16.2587 66.9719 16.792L66.8119 17.192V16.056C66.8119 15.7253 66.8972 15.4747 67.0679 15.304C67.2492 15.1333 67.4945 15.048 67.8039 15.048C68.1239 15.048 68.3692 15.1333 68.5399 15.304C68.7105 15.4747 68.7959 15.7253 68.7959 16.056V22.216C68.7959 23.4853 68.4599 24.44 67.7879 25.08C67.1159 25.72 66.1399 26.04 64.8599 26.04ZM64.8119 21.288C65.2279 21.288 65.5852 21.192 65.8839 21C66.1825 20.808 66.4119 20.536 66.5719 20.184C66.7425 19.8213 66.8279 19.3947 66.8279 18.904C66.8279 18.168 66.6465 17.592 66.2839 17.176C65.9212 16.7493 65.4305 16.536 64.8119 16.536C64.3959 16.536 64.0385 16.632 63.7399 16.824C63.4412 17.016 63.2065 17.288 63.0359 17.64C62.8759 17.992 62.7959 18.4133 62.7959 18.904C62.7959 19.64 62.9772 20.2213 63.3399 20.648C63.7025 21.0747 64.1932 21.288 64.8119 21.288ZM71.8601 23.128C71.5401 23.128 71.2948 23.0427 71.1241 22.872C70.9535 22.6907 70.8681 22.4347 70.8681 22.104V16.056C70.8681 15.7253 70.9535 15.4747 71.1241 15.304C71.2948 15.1333 71.5348 15.048 71.8441 15.048C72.1535 15.048 72.3935 15.1333 72.5641 15.304C72.7348 15.4747 72.8201 15.7253 72.8201 16.056V17.144L72.6441 16.744C72.8788 16.1787 73.2415 15.752 73.7321 15.464C74.2335 15.1653 74.7988 15.016 75.4281 15.016C76.0575 15.016 76.5748 15.1333 76.9801 15.368C77.3855 15.6027 77.6895 15.96 77.8921 16.44C78.0948 16.9093 78.1961 17.5067 78.1961 18.232V22.104C78.1961 22.4347 78.1108 22.6907 77.9401 22.872C77.7695 23.0427 77.5241 23.128 77.2041 23.128C76.8841 23.128 76.6335 23.0427 76.4521 22.872C76.2815 22.6907 76.1961 22.4347 76.1961 22.104V18.328C76.1961 17.72 76.0788 17.2773 75.8441 17C75.6201 16.7227 75.2681 16.584 74.7881 16.584C74.2015 16.584 73.7321 16.7707 73.3801 17.144C73.0388 17.5067 72.8681 17.992 72.8681 18.6V22.104C72.8681 22.7867 72.5321 23.128 71.8601 23.128ZM85.5633 23.112C85.2433 23.112 84.9979 23.016 84.8273 22.824C84.6566 22.632 84.5713 22.3653 84.5713 22.024V16.152C84.5713 15.8 84.6566 15.5333 84.8273 15.352C84.9979 15.16 85.2433 15.064 85.5633 15.064C85.8833 15.064 86.1286 15.16 86.2993 15.352C86.4806 15.5333 86.5713 15.8 86.5713 16.152V22.024C86.5713 22.3653 86.4859 22.632 86.3153 22.824C86.1446 23.016 85.8939 23.112 85.5633 23.112ZM85.5633 13.576C85.1899 13.576 84.8966 13.4853 84.6833 13.304C84.4806 13.112 84.3793 12.8507 84.3793 12.52C84.3793 12.1787 84.4806 11.9173 84.6833 11.736C84.8966 11.5547 85.1899 11.464 85.5633 11.464C85.9473 11.464 86.2406 11.5547 86.4433 11.736C86.6459 11.9173 86.7473 12.1787 86.7473 12.52C86.7473 12.8507 86.6459 13.112 86.4433 13.304C86.2406 13.4853 85.9473 13.576 85.5633 13.576ZM89.6414 23.128C89.3214 23.128 89.076 23.0427 88.9054 22.872C88.7347 22.6907 88.6494 22.4347 88.6494 22.104V16.056C88.6494 15.7253 88.7347 15.4747 88.9054 15.304C89.076 15.1333 89.316 15.048 89.6254 15.048C89.9347 15.048 90.1747 15.1333 90.3454 15.304C90.516 15.4747 90.6014 15.7253 90.6014 16.056V17.144L90.4254 16.744C90.66 16.1787 91.0227 15.752 91.5134 15.464C92.0147 15.1653 92.58 15.016 93.2094 15.016C93.8387 15.016 94.356 15.1333 94.7614 15.368C95.1667 15.6027 95.4707 15.96 95.6734 16.44C95.876 16.9093 95.9774 17.5067 95.9774 18.232V22.104C95.9774 22.4347 95.892 22.6907 95.7214 22.872C95.5507 23.0427 95.3054 23.128 94.9854 23.128C94.6654 23.128 94.4147 23.0427 94.2334 22.872C94.0627 22.6907 93.9774 22.4347 93.9774 22.104V18.328C93.9774 17.72 93.86 17.2773 93.6254 17C93.4014 16.7227 93.0494 16.584 92.5694 16.584C91.9827 16.584 91.5134 16.7707 91.1614 17.144C90.82 17.5067 90.6494 17.992 90.6494 18.6V22.104C90.6494 22.7867 90.3134 23.128 89.6414 23.128Z" fill="#F5F5F5"/>
</svg>
