<svg width="24" height="22" viewBox="0 0 24 22" fill="none" xmlns="http://www.w3.org/2000/svg">
<path d="M5.03127 17.3959L9.2052 13.2123L11.119 15.1261C11.7056 15.7127 12.7064 15.4954 12.9952 14.7234C13.157 14.3063 13.0515 13.8343 12.7311 13.5139L12.7304 13.5132L10.7438 11.5552C12.3943 9.69967 13.635 7.51716 14.3853 5.15H16.2151C16.8379 5.15 17.3551 4.63284 17.3551 4.01V3.99C17.3551 3.36716 16.8379 2.85 16.2151 2.85H10.3551V2C10.3551 1.36716 9.83792 0.85 9.20508 0.85C8.57224 0.85 8.05508 1.36716 8.05508 2V2.85H2.19508C1.57224 2.85 1.05508 3.36716 1.05508 3.99C1.05508 4.62383 1.57322 5.13 2.19508 5.13H12.163C11.5001 6.96629 10.4964 8.66108 9.2046 10.1252C8.45216 9.27892 7.81521 8.36149 7.27678 7.39819C7.18882 7.23316 7.05778 7.09503 6.89759 6.9985C6.73691 6.90168 6.55295 6.85035 6.36536 6.85H6.36508C5.56121 6.85 5.04771 7.72279 5.4443 8.42347C6.05736 9.52302 6.80168 10.5754 7.66812 11.5534L3.40054 15.7624C3.40042 15.7625 3.40031 15.7627 3.40019 15.7628C3.29102 15.8689 3.20422 15.9959 3.14494 16.1362C3.08559 16.2766 3.05501 16.4275 3.05501 16.58C3.05501 16.7325 3.08559 16.8834 3.14494 17.0238C3.20416 17.1639 3.29082 17.2908 3.39982 17.3969C3.84919 17.8454 4.57256 17.8432 5.0298 17.3974L5.03127 17.3959ZM6.36508 7C5.67508 7 5.23508 7.75 5.57508 8.35C6.20508 9.48 6.97508 10.56 7.87508 11.56L6.36508 7ZM14.5754 20.4431L14.5756 20.4423L15.4293 18.15H19.9713L20.8347 20.4429L20.8353 20.4444C20.9968 20.8597 21.4008 21.15 21.8551 21.15C22.6075 21.15 23.1432 20.3975 22.8755 19.6872C22.8755 19.6872 22.8755 19.6871 22.8754 19.6871L19.2056 9.88739L19.205 9.88599C18.9629 9.25869 18.3677 8.85 17.7051 8.85C17.0431 8.85 16.4465 9.25837 16.2145 9.88777C16.2144 9.88789 16.2144 9.88802 16.2143 9.88814L12.5455 19.6851C12.5453 19.6855 12.5452 19.6859 12.545 19.6863C12.2661 20.3978 12.8034 21.15 13.5551 21.15C14.0075 21.15 14.4133 20.8714 14.5754 20.4431ZM19.1088 15.85H16.3014L17.7051 12.0981L19.1088 15.85Z" fill="#66C2FF" stroke="#66C2FF" stroke-width="0.3"/>
</svg>
